<svg width="11" height="10" viewBox="0 0 11 10" fill="none" xmlns="http://www.w3.org/2000/svg">
<g clip-path="url(#clip0_201_13376)">
<path d="M3.01074 2.37817L3.39195 8.47756C3.41006 8.82999 3.66643 9.0875 4.00189 9.0875H7.50904C7.84584 9.0875 8.09744 8.82999 8.11898 8.47756L8.50019 2.37817" stroke="white" stroke-width="0.609939" stroke-linecap="round" stroke-linejoin="round"/>
<path d="M2.40088 2.37817H9.11021" stroke="white" stroke-width="0.609939" stroke-miterlimit="10" stroke-linecap="round"/>
<path d="M4.53565 2.3782V1.61578C4.53547 1.55566 4.54718 1.49609 4.57011 1.44051C4.59304 1.38493 4.62673 1.33443 4.66924 1.29192C4.71175 1.24941 4.76225 1.21572 4.81783 1.19279C4.87341 1.16986 4.93298 1.15815 4.9931 1.15833H6.51795C6.57807 1.15815 6.63764 1.16986 6.69322 1.19279C6.7488 1.21572 6.7993 1.24941 6.84181 1.29192C6.88432 1.33443 6.91801 1.38493 6.94094 1.44051C6.96387 1.49609 6.97558 1.55566 6.9754 1.61578V2.3782" stroke="white" stroke-width="0.609939" stroke-linecap="round" stroke-linejoin="round"/>
<path d="M5.75537 3.59802V7.86759" stroke="white" stroke-width="0.609939" stroke-linecap="round" stroke-linejoin="round"/>
<path d="M4.3833 3.59802L4.53579 7.86759" stroke="white" stroke-width="0.609939" stroke-linecap="round" stroke-linejoin="round"/>
<path d="M7.12807 3.59802L6.97559 7.86759" stroke="white" stroke-width="0.609939" stroke-linecap="round" stroke-linejoin="round"/>
</g>
<defs>
<clipPath id="clip0_201_13376">
<rect width="9.75902" height="9.75902" fill="white" transform="translate(0.875977 0.243408)"/>
</clipPath>
</defs>
</svg>
