<svg width="24" height="24" viewBox="0 0 24 24" fill="none" xmlns="http://www.w3.org/2000/svg">
<g clip-path="url(#clip0_201_29165)">
<path d="M14.25 4.00803C14.25 4.20694 14.329 4.3977 14.4697 4.53836C14.6103 4.67901 14.8011 4.75803 15 4.75803C15.1989 4.75803 15.3897 4.67901 15.5303 4.53836C15.671 4.3977 15.75 4.20694 15.75 4.00803V1.26453C15.75 1.06561 15.671 0.874849 15.5303 0.734196C15.3897 0.593544 15.1989 0.514526 15 0.514526C14.8011 0.514526 14.6103 0.593544 14.4697 0.734196C14.329 0.874849 14.25 1.06561 14.25 1.26453V4.00803ZM21 4.06053C21.1366 3.91907 21.2122 3.72962 21.2105 3.53298C21.2088 3.33633 21.1299 3.14822 20.9909 3.00916C20.8518 2.87011 20.6637 2.79123 20.4671 2.78952C20.2704 2.78781 20.081 2.86341 19.9395 3.00003L18 4.93953C17.9284 5.00871 17.8712 5.09147 17.8319 5.18297C17.7926 5.27448 17.7719 5.37289 17.7711 5.47248C17.7702 5.57206 17.7892 5.67082 17.8269 5.76299C17.8646 5.85516 17.9203 5.9389 17.9907 6.00932C18.0611 6.07974 18.1449 6.13543 18.237 6.17314C18.3292 6.21085 18.428 6.22983 18.5276 6.22896C18.6271 6.2281 18.7256 6.20741 18.8171 6.1681C18.9086 6.1288 18.9913 6.07166 19.0605 6.00003L21 4.06053ZM10.9395 6.00003C11.0087 6.07166 11.0915 6.1288 11.183 6.1681C11.2745 6.20741 11.3729 6.2281 11.4725 6.22896C11.572 6.22983 11.6708 6.21085 11.763 6.17314C11.8551 6.13543 11.9389 6.07974 12.0093 6.00932C12.0797 5.9389 12.1354 5.85516 12.1731 5.76299C12.2108 5.67082 12.2298 5.57206 12.2289 5.47248C12.2281 5.37289 12.2074 5.27448 12.1681 5.18297C12.1288 5.09147 12.0716 5.00871 12 4.93953L10.0605 3.00003C9.91906 2.86341 9.72961 2.78781 9.53296 2.78952C9.33631 2.79123 9.1482 2.87011 9.00915 3.00916C8.87009 3.14822 8.79121 3.33633 8.7895 3.53298C8.7878 3.72962 8.86339 3.91907 9.00001 4.06053L10.9395 6.00003ZM10.008 9.75003C10.2069 9.75003 10.3977 9.67101 10.5383 9.53036C10.679 9.3897 10.758 9.19894 10.758 9.00003C10.758 8.80111 10.679 8.61035 10.5383 8.4697C10.3977 8.32904 10.2069 8.25003 10.008 8.25003H7.26451C7.0656 8.25003 6.87483 8.32904 6.73418 8.4697C6.59353 8.61035 6.51451 8.80111 6.51451 9.00003C6.51451 9.19894 6.59353 9.3897 6.73418 9.53036C6.87483 9.67101 7.0656 9.75003 7.26451 9.75003H10.008ZM22.7355 9.75003C22.9344 9.75003 23.1252 9.67101 23.2658 9.53036C23.4065 9.3897 23.4855 9.19894 23.4855 9.00003C23.4855 8.80111 23.4065 8.61035 23.2658 8.4697C23.1252 8.32904 22.9344 8.25003 22.7355 8.25003H19.992C19.7931 8.25003 19.6023 8.32904 19.4617 8.4697C19.321 8.61035 19.242 8.80111 19.242 9.00003C19.242 9.19894 19.321 9.3897 19.4617 9.53036C19.6023 9.67101 19.7931 9.75003 19.992 9.75003H22.7355ZM19.9395 15C20.0087 15.0717 20.0915 15.1288 20.183 15.1681C20.2745 15.2074 20.3729 15.2281 20.4725 15.229C20.572 15.2298 20.6708 15.2109 20.763 15.1731C20.8551 15.1354 20.9389 15.0797 21.0093 15.0093C21.0797 14.9389 21.1354 14.8552 21.1731 14.763C21.2108 14.6708 21.2298 14.5721 21.2289 14.4725C21.2281 14.3729 21.2074 14.2745 21.1681 14.183C21.1288 14.0915 21.0716 14.0087 21 13.9395L19.0605 12C18.9913 11.9284 18.9086 11.8713 18.8171 11.832C18.7256 11.7926 18.6271 11.772 18.5276 11.7711C18.428 11.7702 18.3292 11.7892 18.237 11.8269C18.1449 11.8646 18.0611 11.9203 17.9907 11.9907C17.9203 12.0611 17.8646 12.1449 17.8269 12.2371C17.7892 12.3292 17.7702 12.428 17.7711 12.5276C17.7719 12.6272 17.7926 12.7256 17.8319 12.8171C17.8712 12.9086 17.9284 12.9913 18 13.0605L19.9395 15ZM14.25 16.7355C14.25 16.9344 14.329 17.1252 14.4697 17.2659C14.6103 17.4065 14.8011 17.4855 15 17.4855C15.1989 17.4855 15.3897 17.4065 15.5303 17.2659C15.671 17.1252 15.75 16.9344 15.75 16.7355V13.992C15.75 13.7931 15.671 13.6023 15.5303 13.4617C15.3897 13.321 15.1989 13.242 15 13.242C14.8011 13.242 14.6103 13.321 14.4697 13.4617C14.329 13.6023 14.25 13.7931 14.25 13.992V16.7355ZM17.031 9.09003C17.1712 8.94944 17.2498 8.75903 17.2498 8.56053C17.2498 8.36202 17.1712 8.17161 17.031 8.03103L15.969 6.96903C15.8284 6.82842 15.6376 6.74944 15.4388 6.74944C15.2399 6.74944 15.0492 6.82842 14.9085 6.96903L12.969 8.91003C12.8284 9.05067 12.7494 9.2414 12.7494 9.44028C12.7494 9.63915 12.8284 9.82988 12.969 9.97053L14.031 11.0325C14.1717 11.1731 14.3624 11.2521 14.5613 11.2521C14.7601 11.2521 14.9509 11.1731 15.0915 11.0325L17.031 9.09303V9.09003ZM12.531 13.59C12.6712 13.4494 12.7498 13.259 12.7498 13.0605C12.7498 12.862 12.6712 12.6716 12.531 12.531L11.469 11.469C11.3284 11.3284 11.1376 11.2494 10.9388 11.2494C10.7399 11.2494 10.5492 11.3284 10.4085 11.469L0.96901 20.91C0.828407 21.0507 0.74942 21.2414 0.74942 21.4403C0.74942 21.6391 0.828407 21.8299 0.96901 21.9705L2.03101 23.0325C2.17166 23.1731 2.36239 23.2521 2.56126 23.2521C2.76013 23.2521 2.95086 23.1731 3.09151 23.0325L12.531 13.59Z" fill="white"/>
</g>
<defs>
<clipPath id="clip0_201_29165">
<rect width="24" height="24" fill="white"/>
</clipPath>
</defs>
</svg>
