<svg width="7" height="7" viewBox="0 0 7 7" fill="none" xmlns="http://www.w3.org/2000/svg">
<g clip-path="url(#clip0_201_17737)">
<path d="M5.97915 4.61802C5.97915 4.72354 5.92084 4.81517 5.83198 4.86237L3.63839 6.09523C3.59396 6.12855 3.53843 6.14521 3.48011 6.14521C3.4218 6.14521 3.36627 6.12855 3.32184 6.09523L1.12824 4.86237C1.03939 4.81517 0.981079 4.72354 0.981079 4.61802V2.11899C0.981079 2.01347 1.03939 1.92184 1.12824 1.87464L3.32184 0.641778C3.36627 0.608457 3.4218 0.591797 3.48011 0.591797C3.53843 0.591797 3.59396 0.608457 3.63839 0.641778L5.83198 1.87464C5.92084 1.92184 5.97915 2.01347 5.97915 2.11899V4.61802ZM3.48011 1.18879L1.8252 2.11899L3.48011 3.04918L5.13503 2.11899L3.48011 1.18879ZM1.53642 4.4542L3.20244 5.39272V3.52955L1.53642 2.5938V4.4542ZM5.42381 4.4542V2.5938L3.75779 3.52955V5.39272L5.42381 4.4542Z" fill="white"/>
</g>
<defs>
<clipPath id="clip0_201_17737">
<rect width="6.6641" height="6.6641" fill="white" transform="translate(0.148071 0.0371094)"/>
</clipPath>
</defs>
</svg>