<svg width="28" height="28" viewBox="0 0 28 28" fill="none" xmlns="http://www.w3.org/2000/svg">
<g clip-path="url(#clip0_2720_40257)">
<path d="M0.960938 23.1367C1.31249 23.1367 1.61717 23.4297 1.61719 23.793C1.61719 24.1562 1.3125 24.4492 0.960938 24.4492C0.597656 24.4492 0.304688 24.1562 0.304688 23.793C0.304707 23.4297 0.597668 23.1367 0.960938 23.1367ZM26.8477 23.1367C27.2108 23.1367 27.5039 23.4297 27.5039 23.793C27.5039 24.1562 27.2109 24.4492 26.8477 24.4492C26.4961 24.4492 26.1914 24.1562 26.1914 23.793C26.1914 23.4297 26.4961 23.1367 26.8477 23.1367ZM4.65234 18.8008C4.99199 18.8008 5.29182 18.9813 5.46289 19.2471C5.08661 19.7136 4.77374 20.2031 4.52637 20.7012C4.05777 20.6387 3.69141 20.2346 3.69141 19.75C3.69141 19.2344 4.12501 18.8008 4.65234 18.8008ZM23.1562 18.8008C23.6836 18.8008 24.1172 19.2344 24.1172 19.75C24.1172 20.2275 23.7615 20.6268 23.3027 20.6982C23.0527 20.1956 22.736 19.7018 22.3545 19.2314C22.5271 18.9739 22.823 18.8008 23.1562 18.8008ZM0.960938 19.0938C1.3125 19.0938 1.61718 19.3984 1.61719 19.75C1.61719 20.1133 1.3125 20.4062 0.960938 20.4062C0.597656 20.4062 0.304688 20.1133 0.304688 19.75C0.304691 19.3984 0.597658 19.0938 0.960938 19.0938ZM26.8477 19.0938C27.2109 19.0938 27.5039 19.3984 27.5039 19.75C27.5039 20.1133 27.2109 20.4062 26.8477 20.4062C26.4961 20.4062 26.1914 20.1133 26.1914 19.75C26.1914 19.3984 26.4961 19.0938 26.8477 19.0938ZM4.65234 14.4531C5.34373 14.4531 5.90622 15.0273 5.90625 15.7188C5.90625 16.3983 5.34375 16.9727 4.65234 16.9727C3.96094 16.9727 3.39844 16.3984 3.39844 15.7188C3.39847 15.0273 3.96096 14.4531 4.65234 14.4531ZM23.1562 14.4531C23.8477 14.4532 24.4101 15.0273 24.4102 15.7188C24.4102 16.3983 23.8477 16.9726 23.1562 16.9727C22.4649 16.9727 21.9023 16.3984 21.9023 15.7188C21.9024 15.0273 22.4649 14.4531 23.1562 14.4531ZM8.34375 14.4531C8.56603 14.4531 8.77483 14.5127 8.95605 14.6162C9.1387 14.9302 9.34729 15.2251 9.57715 15.499C9.58979 15.5706 9.59765 15.6439 9.59766 15.7188C9.59766 15.9464 9.53279 16.1613 9.42285 16.3477C8.98459 16.5282 8.56861 16.7334 8.17578 16.959C7.5722 16.8739 7.08984 16.3414 7.08984 15.7188C7.08987 15.0273 7.66408 14.4531 8.34375 14.4531ZM19.4648 14.4531C20.1445 14.4531 20.7187 15.0273 20.7188 15.7188C20.7188 16.336 20.2446 16.8639 19.6484 16.9561C19.2455 16.7252 18.8179 16.5165 18.3672 16.333C18.261 16.1501 18.1992 15.9402 18.1992 15.7188C18.1992 15.6574 18.2052 15.5972 18.2139 15.5381C18.4609 15.2491 18.683 14.9354 18.877 14.6006C19.0532 14.5065 19.2537 14.4531 19.4648 14.4531ZM0.960938 14.7578C1.47654 14.7578 1.91013 15.1914 1.91016 15.7188C1.91016 16.2344 1.47656 16.668 0.960938 16.668C0.433594 16.668 0 16.2343 0 15.7188C2.97926e-05 15.1914 0.433612 14.7578 0.960938 14.7578ZM26.8477 14.7578C27.3749 14.7578 27.8086 15.1914 27.8086 15.7188C27.8086 16.2344 27.375 16.668 26.8477 16.668C26.3203 16.6679 25.8867 16.2343 25.8867 15.7188C25.8867 15.1914 26.3203 14.7578 26.8477 14.7578ZM4.65234 10.4219C5.34374 10.4219 5.90624 10.9844 5.90625 11.6758C5.90625 12.3672 5.34375 12.9297 4.65234 12.9297C3.96094 12.9297 3.39844 12.3672 3.39844 11.6758C3.39845 10.9844 3.96095 10.4219 4.65234 10.4219ZM23.1562 10.4219C23.8477 10.4219 24.4101 10.9844 24.4102 11.6758C24.4102 12.3672 23.8477 12.9297 23.1562 12.9297C22.4649 12.9297 21.9023 12.3672 21.9023 11.6758C21.9024 10.9844 22.4649 10.4219 23.1562 10.4219ZM8.15234 10.4385C8.10865 10.7415 8.08594 11.0528 8.08594 11.3711C8.08594 11.9082 8.15142 12.4291 8.27344 12.9258C7.62497 12.8886 7.08984 12.3432 7.08984 11.6758C7.08986 11.0505 7.55976 10.5322 8.15234 10.4385ZM19.6826 10.4424C20.2627 10.5471 20.7187 11.0598 20.7188 11.6758C20.7188 12.3364 20.1943 12.8768 19.5547 12.9238C19.6791 12.4209 19.7461 11.8928 19.7461 11.3477C19.7461 11.0383 19.7233 10.7363 19.6826 10.4424ZM0.960938 10.7148C1.47655 10.7148 1.91014 11.1484 1.91016 11.6758C1.91016 12.2031 1.47656 12.6367 0.960938 12.6367C0.433594 12.6367 0 12.2031 0 11.6758C1.30672e-05 11.1484 0.433602 10.7148 0.960938 10.7148ZM26.8477 10.7148C27.3749 10.7148 27.8086 11.1484 27.8086 11.6758C27.8086 12.2031 27.375 12.6367 26.8477 12.6367C26.3203 12.6367 25.8867 12.2031 25.8867 11.6758C25.8867 11.1484 26.3203 10.7149 26.8477 10.7148ZM4.65234 6.68359C5.17969 6.6836 5.61328 7.1172 5.61328 7.63281C5.61328 8.16016 5.17969 8.59375 4.65234 8.59375C4.125 8.59375 3.69141 8.16016 3.69141 7.63281C3.69141 7.11719 4.125 6.68359 4.65234 6.68359ZM8.34375 6.68359C8.86842 6.68359 9.29935 7.11283 9.30371 7.625C9.10315 7.89597 8.92439 8.18612 8.76855 8.49219C8.64004 8.55638 8.49611 8.59375 8.34375 8.59375C7.82812 8.59375 7.39453 8.16016 7.39453 7.63281C7.39453 7.11719 7.82812 6.68359 8.34375 6.68359ZM19.4648 6.68359C19.9805 6.68362 20.4141 7.11721 20.4141 7.63281C20.4141 8.16015 19.9805 8.59373 19.4648 8.59375C19.3316 8.59375 19.2046 8.56548 19.0889 8.51562C18.9219 8.18103 18.7271 7.86619 18.5068 7.57422C18.5382 7.08479 18.9577 6.68359 19.4648 6.68359ZM23.1562 6.68359C23.6836 6.68362 24.1172 7.11721 24.1172 7.63281C24.1172 8.16015 23.6836 8.59372 23.1562 8.59375C22.6289 8.59375 22.1953 8.16016 22.1953 7.63281C22.1953 7.11719 22.629 6.68359 23.1562 6.68359ZM0.960938 6.97656C1.3125 6.97656 1.61719 7.28125 1.61719 7.63281C1.61719 7.99609 1.3125 8.30078 0.960938 8.30078C0.597656 8.30078 0.304688 7.99609 0.304688 7.63281C0.304689 7.28125 0.597657 6.97656 0.960938 6.97656ZM26.8477 6.97656C27.2109 6.97656 27.5039 7.28125 27.5039 7.63281C27.5039 7.99609 27.2109 8.30078 26.8477 8.30078C26.4961 8.30076 26.1914 7.99608 26.1914 7.63281C26.1914 7.28127 26.4961 6.97659 26.8477 6.97656ZM12.0586 2.64062C12.5742 2.64062 13.0078 3.07422 13.0078 3.60156C13.0078 4.11719 12.5742 4.55078 12.0586 4.55078C11.5312 4.55078 11.0977 4.11719 11.0977 3.60156C11.0977 3.07423 11.5312 2.64063 12.0586 2.64062ZM15.75 2.64062C16.2773 2.64062 16.7109 3.07422 16.7109 3.60156C16.7109 4.11719 16.2773 4.55078 15.75 4.55078C15.2227 4.55078 14.7891 4.11719 14.7891 3.60156C14.7891 3.07422 15.2227 2.64062 15.75 2.64062ZM0.960938 2.94531C1.3125 2.94531 1.61719 3.23828 1.61719 3.60156C1.61719 3.95312 1.3125 4.25781 0.960938 4.25781C0.597656 4.25781 0.304688 3.95312 0.304688 3.60156C0.304689 3.23828 0.597657 2.94531 0.960938 2.94531ZM4.65234 2.94531C5.01562 2.94531 5.30859 3.23828 5.30859 3.60156C5.30859 3.95312 5.01562 4.25781 4.65234 4.25781C4.28906 4.25781 3.99609 3.95312 3.99609 3.60156C3.9961 3.23828 4.28906 2.94531 4.65234 2.94531ZM8.34375 2.94531C8.70703 2.94531 9 3.23828 9 3.60156C9 3.95312 8.70703 4.25781 8.34375 4.25781C7.99219 4.25781 7.6875 3.95312 7.6875 3.60156C7.6875 3.23828 7.99219 2.94531 8.34375 2.94531ZM19.4648 2.94531C19.8164 2.94534 20.1211 3.2383 20.1211 3.60156C20.1211 3.95311 19.8164 4.25779 19.4648 4.25781C19.1016 4.25781 18.7969 3.95312 18.7969 3.60156C18.7969 3.23828 19.1016 2.94531 19.4648 2.94531ZM23.1562 2.94531C23.5195 2.94534 23.8125 3.2383 23.8125 3.60156C23.8125 3.95311 23.5195 4.25778 23.1562 4.25781C22.793 4.25781 22.5 3.95312 22.5 3.60156C22.5 3.23828 22.7931 2.94531 23.1562 2.94531ZM26.8477 2.94531C27.2109 2.94531 27.5039 3.23828 27.5039 3.60156C27.5039 3.95312 27.2109 4.25781 26.8477 4.25781C26.4961 4.25779 26.1914 3.95311 26.1914 3.60156C26.1914 3.2383 26.4961 2.94534 26.8477 2.94531Z" fill="white" fill-opacity="0.85"/>
<path d="M13.9102 15.8008C16.0547 15.8008 17.9531 13.8438 17.9531 11.3477C17.9531 8.85156 16.0547 7.03516 13.9102 7.03516C11.7773 7.03516 9.87891 8.89844 9.87891 11.3711C9.87891 13.8438 11.7773 15.8008 13.9102 15.8008ZM7.91016 24.6719H19.9102C21.6445 24.6719 22.1719 24.1797 22.1719 23.3125C22.1719 20.7812 19.0195 17.2891 13.9102 17.2891C8.8125 17.2891 5.66016 20.7812 5.66016 23.3125C5.66016 24.1797 6.17578 24.6719 7.91016 24.6719Z" fill="white" fill-opacity="0.85"/>
</g>
<defs>
<clipPath id="clip0_2720_40257">
<rect width="27.8086" height="25.4648" fill="white" transform="translate(0 1)"/>
</clipPath>
</defs>
</svg>
